<?xml version="1.0" encoding="UTF-8"?>
<svg xmlns="http://www.w3.org/2000/svg" width="640" height="320" viewBox="0 0 640 320">
  <title>slot_bottom</title>
  <metadata>LogicalCellPixels=512; RecommendedPixelsPerUnit=512; Pivot=Top Center (0.5, 1.0)</metadata>

  <defs>
    <linearGradient id="slotMain" x1="0" y1="0" x2="0.9" y2="1">
      <stop offset="0" stop-color="#4B477F"/>
      <stop offset="0.52" stop-color="#39366B"/>
      <stop offset="1" stop-color="#2A2858"/>
    </linearGradient>
    <linearGradient id="slotRecess" x1="0" y1="0" x2="0.85" y2="1">
      <stop offset="0" stop-color="#38366B"/>
      <stop offset="0.62" stop-color="#2E2C5B"/>
      <stop offset="1" stop-color="#24234D"/>
    </linearGradient>
    <linearGradient id="iceMain" x1="0" y1="0" x2="0.85" y2="1">
      <stop offset="0" stop-color="#E1F8FF" stop-opacity="0.98"/>
      <stop offset="0.42" stop-color="#A8E9FB" stop-opacity="0.96"/>
      <stop offset="1" stop-color="#59B9E4" stop-opacity="0.98"/>
    </linearGradient>
    <linearGradient id="iceFacet" x1="0" y1="0" x2="1" y2="1">
      <stop offset="0" stop-color="#FFFFFF" stop-opacity="0.9"/>
      <stop offset="0.55" stop-color="#BCEFFF" stop-opacity="0.72"/>
      <stop offset="1" stop-color="#67C7EC" stop-opacity="0.9"/>
    </linearGradient>
    <linearGradient id="coverMain" x1="0" y1="0" x2="0.9" y2="1">
      <stop offset="0" stop-color="#E3C7B8"/>
      <stop offset="0.48" stop-color="#C9A99C"/>
      <stop offset="1" stop-color="#AB877D"/>
    </linearGradient>
    <linearGradient id="coverSoft" x1="0" y1="0" x2="0" y2="1">
      <stop offset="0" stop-color="#DCC0B2"/>
      <stop offset="0.58" stop-color="#C4A397"/>
      <stop offset="1" stop-color="#A98278"/>
    </linearGradient>
    <linearGradient id="mysteryMain" x1="0" y1="0" x2="0.9" y2="1">
      <stop offset="0" stop-color="#444250"/>
      <stop offset="0.46" stop-color="#34323F"/>
      <stop offset="1" stop-color="#24232D"/>
    </linearGradient>
    <radialGradient id="shadowFade" cx="50%" cy="50%" r="50%">
      <stop offset="0" stop-color="#17142F" stop-opacity="0.72"/>
      <stop offset="0.62" stop-color="#17142F" stop-opacity="0.4"/>
      <stop offset="1" stop-color="#17142F" stop-opacity="0"/>
    </radialGradient>
    <filter id="iceGlow" x="-30%" y="-50%" width="160%" height="200%">
      <feGaussianBlur stdDeviation="13"/>
    </filter>
  </defs>

  <path d="M80 8h512v177c0 73-51 111-128 111H208c-77 0-128-38-128-111Z" fill="#17142F" opacity="0.58" transform="translate(12 12)"/>
  <path d="M64 0h512v175c0 68-48 105-120 105H184c-72 0-120-37-120-105Z" fill="url(#slotMain)" stroke="#211D45" stroke-width="18" stroke-linejoin="round"/>
  <path d="M94 0h442v155c0 50-34 73-87 73H191c-53 0-97-23-97-73Z" fill="url(#slotRecess)"/>
  <path d="M104 24v126c0 38 23 58 68 63" fill="none" stroke="#625C99" stroke-width="12" stroke-linecap="round" opacity="0.74"/>
  <path d="M100 210c18 32 50 47 96 47h248c54 0 87-18 102-53-10 47-45 68-105 68H198c-54 0-87-19-98-62Z" fill="#201E47" opacity="0.9"/>
  <path d="M235 244h170c26 0 45 13 49 36H186c4-23 23-36 49-36Z" fill="#6B63A4" opacity="0.66"/>
</svg>
